<?xml version="1.0" encoding="UTF-8"?>
<svg viewBox="0 0 275 315" xmlns="http://www.w3.org/2000/svg">
 <defs>
  <filter id="a">
   <feGaussianBlur stdDeviation="5.34"/>
  </filter>
 </defs>
 <path d="m14 14v70.556c0 140.89 103.89 205.92 123.5 216.44 19.613-10.524 123.5-75.552 123.5-216.44v-70.556h-247z" fill-opacity=".78431" filter="url(#a)"/>
 <path d="m4 4v70.556c0 140.89 103.89 205.92 123.5 216.44 19.613-10.524 123.5-75.552 123.5-216.44v-70.556h-247z" fill="#fff" stroke="#000" stroke-width="3"/>
 <path d="m127.5 4v287c19.613-10.524 123.5-75.546 123.5-216.44v-70.562h-123.5z" fill="#0039a6" stroke="#000"/>
 <path d="m4 39.875v35.875h123.5v-35.875h-123.5zm2.5312 71.75c1.7549 12.69 4.363 24.638 7.6562 35.875h113.31v-35.875h-120.97zm21.344 71.75c6.3271 13.249 13.541 25.191 21.125 35.875h78.5v-35.875h-99.625zm52.031 71.75c21.096 20.344 40.25 31.934 47.594 35.875v-35.875h-47.594z" fill="#dc281e" stroke="#000"/>
 <path d="m4 4v70.556c0 140.89 103.89 205.92 123.5 216.44 19.613-10.524 123.5-75.552 123.5-216.44v-70.556h-247z" fill="none" stroke="#000" stroke-width="3"/>
</svg>
